<svg width="52" height="52" viewBox="0 0 52 52" fill="none" xmlns="http://www.w3.org/2000/svg">
<g clip-path="url(#clip0_19_106)">
<path fill-rule="evenodd" clip-rule="evenodd" d="M28.6 13.6365V30.9698C28.6 32.3367 27.4352 33.446 26 33.446C24.5648 33.446 23.4 32.3367 23.4 30.9698V13.6365C23.4 12.2696 24.5648 11.1603 26 11.1603C27.4352 11.1603 28.6 12.2696 28.6 13.6365ZM28.6 38.3984C28.6 39.7652 27.4352 40.8746 26 40.8746C24.5648 40.8746 23.4 39.7652 23.4 38.3984C23.4 37.0315 24.5648 35.9222 26 35.9222C27.4352 35.9222 28.6 37.0315 28.6 38.3984ZM46.8 43.3335C46.8 44.7003 45.6352 45.8097 44.2 45.8097H7.8C6.3648 45.8097 5.2 44.7003 5.2 43.3335V8.66679C5.2 7.29993 6.3648 6.1906 7.8 6.1906H44.2C45.6352 6.1906 46.8 7.29993 46.8 8.66679V43.3335ZM46.8 1.23822H5.2C2.327 1.23822 0 3.46429 0 6.19801V6.20791V45.827C0 48.5631 2.327 50.762 5.2 50.762H46.8C49.673 50.762 52 48.5532 52 45.8171V6.20791C52 3.47172 49.4 1.23822 46.8 1.23822Z" fill="white"/>
</g>
<defs>
<clipPath id="clip0_19_106">
<rect width="52" height="52" fill="white"/>
</clipPath>
</defs>
</svg>
